<?xml version="1.0" encoding="UTF-8" standalone="no"?>
<!-- Created with Inkscape (http://www.inkscape.org/) -->

<svg
   width="97.131653mm"
   height="104.65861mm"
   viewBox="0 0 97.131653 104.65861"
   version="1.1"
   id="svg5"
   xml:space="preserve"
   inkscape:version="1.2.2 (b0a8486541, 2022-12-01)"
   sodipodi:docname="angles.svg"
   xmlns:inkscape="http://www.inkscape.org/namespaces/inkscape"
   xmlns:sodipodi="http://sodipodi.sourceforge.net/DTD/sodipodi-0.dtd"
   xmlns="http://www.w3.org/2000/svg"
   xmlns:svg="http://www.w3.org/2000/svg"><sodipodi:namedview
     id="namedview7"
     pagecolor="#ffffff"
     bordercolor="#000000"
     borderopacity="0.25"
     inkscape:showpageshadow="2"
     inkscape:pageopacity="0.0"
     inkscape:pagecheckerboard="0"
     inkscape:deskcolor="#d1d1d1"
     inkscape:document-units="mm"
     showgrid="false"
     inkscape:zoom="1"
     inkscape:cx="207"
     inkscape:cy="242.5"
     inkscape:window-width="1920"
     inkscape:window-height="1006"
     inkscape:window-x="0"
     inkscape:window-y="0"
     inkscape:window-maximized="1"
     inkscape:current-layer="layer1" /><defs
     id="defs2"><marker
   style="overflow:visible"
   id="TriangleStart"
   refX="0"
   refY="0"
   orient="auto-start-reverse"
   inkscape:stockid="TriangleStart"
   markerWidth="5.3244081"
   markerHeight="6.155385"
   viewBox="0 0 5.3244081 6.1553851"
   inkscape:isstock="true"
   inkscape:collect="always"
   preserveAspectRatio="xMidYMid"><path
     transform="scale(0.5)"
     style="fill:context-stroke;fill-rule:evenodd;stroke:context-stroke;stroke-width:1pt"
     d="M 5.77,0 -2.88,5 V -5 Z"
     id="path135" /></marker><clipPath
   id="clipPath9883">
      <path
   clip-rule="nonzero"
   d="M 0,0 H 5.9375 V 8.855469 H 0 Z m 0,0"
   id="path8052" />
    </clipPath>
  <clipPath
   id="clipPath7251">
      <path
   clip-rule="nonzero"
   d="M 0,0 H 4.953125 V 6.917969 H 0 Z m 0,0"
   id="path1260" />
    </clipPath>
  <clipPath
   id="clipPath5233">
      <path
   clip-rule="nonzero"
   d="M 0,0 H 6.847656 V 8.855469 H 0 Z m 0,0"
   id="path1613" />
    </clipPath>
  </defs><g
     inkscape:label="Layer 1"
     inkscape:groupmode="layer"
     id="layer1"
     transform="translate(-50.296715,-84.715047)"><path
       style="fill:none;stroke:#ff0000;stroke-width:1;stroke-linecap:round;stroke-dasharray:none;stroke-opacity:1"
       d="m 90.03685,151.69736 49.22302,33.1565"
       id="path236" /><path
       style="fill:none;stroke:#018600;stroke-width:1;stroke-linecap:round;stroke-dasharray:none;stroke-opacity:1"
       d="M 90.03685,151.69736 134.80342,112.7331"
       id="path1008" /><path
       style="fill:none;stroke:#0400ff;stroke-width:1;stroke-linecap:round;stroke-dasharray:none;stroke-opacity:1"
       d="M 90.03685,151.69736 V 96.24964"
       id="path1118" /><text
       xml:space="preserve"
       style="font-size:10.5833px;font-family:'KIDS ZONE';-inkscape-font-specification:'KIDS ZONE';text-align:center;text-anchor:middle;fill:none;stroke:#0400ff;stroke-width:1;stroke-linecap:round;stroke-dasharray:none;stroke-opacity:1"
       x="144.32521"
       y="189.37366"
       id="text2200"><tspan
         sodipodi:role="line"
         id="tspan2198"
         style="font-style:italic;font-variant:normal;font-weight:normal;font-stretch:normal;font-size:10.5833px;font-family:'Liberation Mono';-inkscape-font-specification:'Liberation Mono Italic';fill:#000000;fill-opacity:1;stroke:none;stroke-width:1"
         x="144.32521"
         y="189.37366">x</tspan></text><text
       xml:space="preserve"
       style="font-size:10.5833px;font-family:'KIDS ZONE';-inkscape-font-specification:'KIDS ZONE';text-align:center;text-anchor:middle;fill:none;stroke:#0400ff;stroke-width:1;stroke-linecap:round;stroke-dasharray:none;stroke-opacity:1"
       x="141.15746"
       y="115.02879"
       id="text2306"><tspan
         sodipodi:role="line"
         id="tspan2304"
         style="font-style:italic;font-variant:normal;font-weight:normal;font-stretch:normal;font-size:10.5833px;font-family:'Liberation Mono';-inkscape-font-specification:'Liberation Mono Italic';fill:#000000;fill-opacity:1;stroke:none;stroke-width:1"
         x="141.15746"
         y="115.02879">y</tspan></text><text
       xml:space="preserve"
       style="font-size:10.5833px;font-family:'KIDS ZONE';-inkscape-font-specification:'KIDS ZONE';text-align:center;text-anchor:middle;fill:none;stroke:#0400ff;stroke-width:1;stroke-linecap:round;stroke-dasharray:none;stroke-opacity:1"
       x="89.485176"
       y="90.306419"
       id="text2310"><tspan
         sodipodi:role="line"
         id="tspan2308"
         style="font-style:italic;font-variant:normal;font-weight:normal;font-stretch:normal;font-size:10.5833px;font-family:'Liberation Mono';-inkscape-font-specification:'Liberation Mono Italic';fill:#000000;fill-opacity:1;stroke:none;stroke-width:1"
         x="89.485176"
         y="90.306419">z</tspan></text><path
       id="path4988"
       style="fill:none;fill-opacity:1;stroke:#ff0000;stroke-width:0.607745;stroke-linecap:round;stroke-dasharray:none;stroke-opacity:1;marker-end:url(#TriangleStart)"
       d="m 97.563978,137.77859 c -2.908859,-2.67257 -7.066859,-2.38716 -10.780105,0.73995 -5.487189,4.62172 -8.313815,13.9125 -6.313445,20.75149 2.000357,6.83902 8.070218,8.63648 13.557401,4.01474 3.709769,-3.12919 6.355001,-8.57339 6.859091,-14.11752"
       sodipodi:nodetypes="ccscc" /><g
       inkscape:label=""
       transform="matrix(4.5248705,0,0,4.5248705,50.296716,167.67599)"
       id="g6179"
       style="fill:#0400ff;fill-opacity:1"><g
   clip-path="url(#clipPath9883)"
   id="g17"
   transform="matrix(0.352778,0,0,0.352778,-0.170877,0.00101418)"
   style="fill:#0400ff;fill-opacity:1">
    <g
   fill="#000000"
   fill-opacity="1"
   id="g15"
   style="fill:#0400ff;fill-opacity:1">
      <g
   id="use13"
   transform="translate(0,6.9190001)"
   style="fill:#0400ff;fill-opacity:1">
        <path
   d="m 4.359375,-6.671875 c 0,-0.03125 0.03125,-0.140625 0.03125,-0.140625 0,-0.015625 0,-0.109375 -0.125,-0.109375 -0.09375,0 -0.109375,0.03125 -0.15625,0.203125 L 3.53125,-4.421875 c -1.578125,0.0625 -3.046875,1.375 -3.046875,2.734375 0,0.953125 0.703125,1.734375 1.921875,1.8125 C 2.328125,0.421875 2.25,0.75 2.171875,1.0625 c -0.125,0.46875 -0.21875,0.84375 -0.21875,0.875 0,0.09375 0.078125,0.109375 0.125,0.109375 C 2.125,2.046875 2.140625,2.03125 2.171875,2 2.1875,1.984375 2.25,1.75 2.28125,1.609375 L 2.65625,0.125 c 1.609375,-0.0625 3.0625,-1.40625 3.0625,-2.734375 0,-0.796875 -0.53125,-1.703125 -1.921875,-1.8125 z m -1.90625,6.578125 c -0.59375,-0.03125 -1.3125,-0.390625 -1.3125,-1.375 0,-1.203125 0.859375,-2.59375 2.34375,-2.734375 z m 1.28125,-4.109375 c 0.765625,0.046875 1.328125,0.5 1.328125,1.375 0,1.1875 -0.859375,2.609375 -2.34375,2.734375 z m 0,0"
   id="path23"
   style="fill:#0400ff;fill-opacity:1" />
      </g>
    </g>
  </g>
</g><path
       id="path7315"
       style="fill:none;fill-opacity:1;stroke:#018600;stroke-width:1;stroke-linecap:round;stroke-dasharray:none;stroke-opacity:1;marker-start:url(#TriangleStart)"
       d="m 107.74622,152.58092 c -1.0619,-8.79363 -5.74072,-17.08973 -12.13039,-21.50862 -9.44275,-6.52925 -19.626959,-2.69979 -22.747035,8.5533 -3.120103,11.25307 2.005432,25.66849 11.448193,32.1977 6.387544,4.40955 13.415767,4.20926 18.224742,-0.52006"
       sodipodi:nodetypes="ccscc" /><g
       inkscape:label=""
       transform="matrix(4.0941258,0,0,4.0941258,65.072512,124.58387)"
       id="g7752"
       style="fill:#018600;fill-opacity:1"><g
   clip-path="url(#clipPath7251)"
   id="g7750"
   transform="matrix(0.352778,0,0,0.352778,-0.148828,0.039952)"
   style="fill:#018600;fill-opacity:1">
    <g
   fill="#000000"
   fill-opacity="1"
   id="g7748"
   style="fill:#018600;fill-opacity:1">
      <g
   id="g7746"
   transform="translate(0,6.9180002)"
   style="fill:#018600;fill-opacity:1">
        <path
   d="m 4.53125,-4.984375 c 0,-0.65625 -0.171875,-2.046875 -1.1875,-2.046875 -1.390625,0 -2.921875,2.8125 -2.921875,5.09375 0,0.9375 0.28125,2.046875 1.1875,2.046875 1.40625,0 2.921875,-2.859375 2.921875,-5.09375 z M 1.46875,-3.625 C 1.640625,-4.25 1.84375,-5.046875 2.25,-5.765625 2.515625,-6.25 2.875,-6.8125 3.328125,-6.8125 c 0.484375,0 0.546875,0.640625 0.546875,1.203125 0,0.5 -0.078125,1 -0.3125,1.984375 z m 2,0.328125 C 3.359375,-2.84375 3.15625,-2 2.765625,-1.28125 c -0.34375,0.6875 -0.71875,1.171875 -1.15625,1.171875 -0.328125,0 -0.53125,-0.296875 -0.53125,-1.21875 0,-0.421875 0.0625,-1 0.3125,-1.96875 z m 0,0"
   id="path7744"
   style="fill:#018600;fill-opacity:1" />
      </g>
    </g>
  </g>
</g><g
       inkscape:label=""
       transform="matrix(4.3298464,0,0,4.3298464,93.600033,160.20195)"
       id="g10147"
       style="fill:#ff0000;fill-opacity:1"><g
   clip-path="url(#clipPath5233)"
   id="g10145"
   transform="matrix(0.352778,0,0,0.352778,-0.104731,0.00101418)"
   style="fill:#ff0000;fill-opacity:1">
    <g
   fill="#000000"
   fill-opacity="1"
   id="g10143"
   style="fill:#ff0000;fill-opacity:1">
      <g
   id="g10141"
   transform="translate(0,6.9190001)"
   style="fill:#ff0000;fill-opacity:1">
        <path
   d="m 4.8125,-6.65625 c 0,-0.046875 0.015625,-0.109375 0.015625,-0.15625 0,-0.09375 -0.0625,-0.109375 -0.109375,-0.109375 -0.109375,0 -0.109375,0.03125 -0.15625,0.203125 L 2.90625,-0.125 c -0.75,-0.09375 -1.125,-0.46875 -1.125,-1.125 0,-0.203125 0,-0.453125 0.53125,-1.84375 0.046875,-0.125 0.109375,-0.296875 0.109375,-0.5 0,-0.4375 -0.3125,-0.8125 -0.8125,-0.8125 -0.953125,0 -1.3125,1.453125 -1.3125,1.53125 0,0.109375 0.09375,0.109375 0.109375,0.109375 0.109375,0 0.109375,-0.03125 0.15625,-0.1875 0.28125,-0.9375 0.671875,-1.234375 1.015625,-1.234375 0.078125,0 0.25,0 0.25,0.3125 0,0.265625 -0.109375,0.515625 -0.234375,0.859375 C 1.109375,-1.75 1.109375,-1.5 1.109375,-1.328125 1.109375,-0.375 1.890625,0.03125 2.84375,0.09375 2.765625,0.453125 2.765625,0.46875 2.625,1 2.609375,1.109375 2.40625,1.90625 2.40625,1.9375 c 0,0.015625 0,0.109375 0.109375,0.109375 0.03125,0 0.078125,0 0.09375,-0.046875 0.03125,-0.015625 0.09375,-0.265625 0.125,-0.40625 l 0.375,-1.484375 c 0.375,0 1.25,0 2.1875,-1.0625 0.40625,-0.46875 0.609375,-0.90625 0.71875,-1.203125 0.09375,-0.25 0.3125,-1.109375 0.3125,-1.546875 0,-0.5625 -0.265625,-0.703125 -0.4375,-0.703125 -0.25,0 -0.5,0.265625 -0.5,0.484375 0,0.125 0.0625,0.1875 0.15625,0.265625 0.109375,0.109375 0.359375,0.359375 0.359375,0.84375 0,0.640625 -0.515625,1.453125 -0.875,1.8125 -0.875,0.890625 -1.515625,0.890625 -1.875,0.890625 z m 0,0"
   id="path10139"
   style="fill:#ff0000;fill-opacity:1" />
      </g>
    </g>
  </g>
</g><path
       id="path3845"
       style="fill:none;fill-opacity:1;stroke:#0400ff;stroke-width:1.299;stroke-linecap:round;stroke-dasharray:none;stroke-opacity:1;marker-end:url(#TriangleStart)"
       d="m 114.79327,153.83794 c 6.8985,-9.85217 8.03304,-19.38385 2.94141,-24.712 -7.52548,-7.87286 -26.088899,-4.26845 -41.462504,8.05063 -15.373624,12.31906 -21.735792,28.68785 -14.210266,36.56067 5.097492,5.31762 15.561175,5.54766 27.133849,0.5957"
       sodipodi:nodetypes="ccscc" /></g></svg>
